:FULLY-SPECIFIED
:FORCE-ALL-JOINTS-BE-3DOF
:DEGREES
816
root -4.44283 14.7364 -40.2347 408.257 -73.7705 320.476
lfemur -68.292 14.859 -18.6651
ltibia 75.0713 0 0
lfoot -6.19027 7.58627 0
ltoes -14.0514 0 0
rfemur -30.6903 -5.16747 23.4301
rtibia 71.3649 0 0
rfoot -31.7477 -27.3902 0
rtoes -25.176 0 0
lowerback 17.927 1.29422 3.33841
upperback 0.514172 2.55227 2.49232
thorax -9.48483 1.09223 0.176209
lowerneck -2.09292 12.6743 4.35343
upperneck -1.43696 16.8772 -9.52167
head 1.18888 8.40153 -3.34127
lclavicle -2.72477e-14 6.62617e-16 0
lhumerus 97.9202 -32.2959 23.9948
lradius 92.3535 0 0
lwrist 18.869 0 0
lhand -9.55371 24.5331 0
lfingers 7.12502 0 0
lthumb 16.4134 53.8587 0
rclavicle -2.72477e-14 6.62617e-16 0
rhumerus 21.734 33.3533 -57.2348
rradius 64.3441 0 0
rwrist -12.2944 0 0
rhand -12.3177 -41.247 0
rfingers 7.12502 0 0
rthumb 13.7496 -70.7529 0
817
root -4.27594 14.7463 -40.2837 402.806 -73.5448 326.103
lfemur -68.9803 16.037 -20.1863
ltibia 77.9119 0 0
lfoot -6.74437 8.08624 0
ltoes -14.5384 0 0
rfemur -31.4381 -6.20879 23.56
rtibia 71.4807 0 0
rfoot -32.1594 -27.4104 0
rtoes -24.3388 0 0
lowerback 18.0083 1.19202 3.32032
upperback 0.508285 2.4203 2.50644
thorax -9.54193 1.02938 0.23089
lowerneck -2.114 12.748 4.33267
upperneck -1.49005 16.9758 -9.69383
head 1.19716 8.45048 -3.3883
lclavicle -2.70454e-14 8.94533e-16 0
lhumerus 99.8399 -32.8352 22.4895
lradius 94.8119 0 0
lwrist 18.817 0 0
lhand -9.56059 24.1906 0
lfingers 7.12502 0 0
lthumb 16.4068 53.5167 0
rclavicle -2.70454e-14 8.94533e-16 0
rhumerus 23.6123 34.7701 -56.5785
rradius 64.4549 0 0
rwrist -11.5139 0 0
rhand -12.6516 -41.1531 0
rfingers 7.12502 0 0
rthumb 13.428 -70.6845 0
818
root -4.10905 14.7562 -40.3327 397.355 -73.319 331.731
lfemur -69.6685 17.215 -21.7076
ltibia 80.7525 0 0
lfoot -7.29847 8.5862 0
ltoes -15.0255 0 0
rfemur -32.1859 -7.25012 23.6899
rtibia 71.5965 0 0
rfoot -32.571 -27.4306 0
rtoes -23.5016 0 0
lowerback 18.0896 1.08982 3.30223
upperback 0.502397 2.28834 2.52055
thorax -9.59903 0.966525 0.285571
lowerneck -2.13508 12.8217 4.3119
upperneck -1.54314 17.0744 -9.86599
head 1.20544 8.49943 -3.43533
lclavicle -2.68431e-14 1.12645e-15 0
lhumerus 101.76 -33.3744 20.9843
lradius 97.2702 0 0
lwrist 18.7649 0 0
lhand -9.56748 23.848 0
lfingers 7.12502 0 0
lthumb 16.4002 53.1747 0
rclavicle -2.68431e-14 1.12645e-15 0
rhumerus 25.4905 36.1868 -55.9223
rradius 64.5657 0 0
rwrist -10.7335 0 0
rhand -12.9856 -41.0591 0
rfingers 7.12502 0 0
rthumb 13.1063 -70.6162 0
819
root -3.94216 14.7661 -40.3817 391.904 -73.0933 337.358
lfemur -70.3568 18.393 -23.2288
ltibia 83.5931 0 0
lfoot -7.85257 9.08617 0
ltoes -15.5125 0 0
rfemur -32.9337 -8.29144 23.8198
rtibia 71.7124 0 0
rfoot -32.9826 -27.4507 0
rtoes -22.6645 0 0
lowerback 18.1709 0.987615 3.28414
upperback 0.49651 2.15637 2.53467
thorax -9.65613 0.903674 0.340252
lowerneck -2.15617 12.8955 4.29113
upperneck -1.59622 17.173 -10.0381
head 1.21372 8.54838 -3.48236
lclavicle -2.66407e-14 1.35836e-15 0
lhumerus 103.679 -33.9137 19.479
lradius 99.7286 0 0
lwrist 18.7128 0 0
lhand -9.57436 23.5054 0
lfingers 7.12502 0 0
lthumb 16.3935 52.8326 0
rclavicle -2.66407e-14 1.35836e-15 0
rhumerus 27.3688 37.6036 -55.2661
rradius 64.6764 0 0
rwrist -9.95306 0 0
rhand -13.3196 -40.9652 0
rfingers 7.12502 0 0
rthumb 12.7847 -70.5478 0
820
root -3.77527 14.776 -40.4307 386.453 -72.8675 342.986
lfemur -71.045 19.571 -24.7501
ltibia 86.4337 0 0
lfoot -8.40667 9.58613 0
ltoes -15.9996 0 0
rfemur -33.6815 -9.33276 23.9497
rtibia 71.8282 0 0
rfoot -33.3942 -27.4709 0
rtoes -21.8273 0 0
lowerback 18.2522 0.885413 3.26605
upperback 0.490623 2.02441 2.54879
thorax -9.71323 0.840823 0.394933
lowerneck -2.17725 12.9692 4.27036
upperneck -1.64931 17.2716 -10.2103
head 1.222 8.59733 -3.52939
lclavicle -2.64384e-14 1.59028e-15 0
lhumerus 105.599 -34.4529 17.9737
lradius 102.187 0 0
lwrist 18.6607 0 0
lhand -9.58125 23.1628 0
lfingers 7.12502 0 0
lthumb 16.3869 52.4906 0
rclavicle -2.64384e-14 1.59028e-15 0
rhumerus 29.247 39.0203 -54.6099
rradius 64.7872 0 0
rwrist -9.17263 0 0
rhand -13.6536 -40.8712 0
rfingers 7.12502 0 0
rthumb 12.4631 -70.4795 0
821
root -3.69539 14.7862 -40.4053 385.797 -72.2648 343.503
lfemur -69.806 19.6211 -23.2417
ltibia 85.2651 0 0
lfoot -7.67001 9.88831 0
ltoes -15.3284 0 0
rfemur -33.6328 -9.6794 23.6792
rtibia 71.7374 0 0
rfoot -33.0894 -27.466 0
rtoes -21.7293 0 0
lowerback 18.2219 0.949241 3.26043
upperback 0.43736 2.10876 2.52721
thorax -9.75283 0.880441 0.352862
lowerneck -2.27059 12.8609 4.29369
upperneck -1.41166 17.1338 -10.0735
head 1.29596 8.52386 -3.48409
lclavicle -2.49901e-14 8.70867e-16 0
lhumerus 103.929 -34.7979 18.1866
lradius 103.266 0 0
lwrist 17.8596 0 0
lhand -9.74098 23.4299 0
lfingers 7.12502 0 0
lthumb 16.233 52.769 0
rclavicle -2.49901e-14 8.70867e-16 0
rhumerus 30.0276 40.3167 -53.1349
rradius 66.0497 0 0
rwrist -8.07419 0 0
rhand -12.6864 -39.944 0
rfingers 7.12502 0 0
rthumb 13.391 -69.4384 0
822
root -3.61552 14.7964 -40.3798 385.14 -71.6622 344.02
lfemur -68.5669 19.6712 -21.7333
ltibia 84.0964 0 0
lfoot -6.93335 10.1905 0
ltoes -14.6572 0 0
rfemur -33.5842 -10.026 23.4086
rtibia 71.6465 0 0
rfoot -32.7845 -27.4612 0
rtoes -21.6314 0 0
lowerback 18.1916 1.01307 3.25481
upperback 0.384097 2.1931 2.50563
thorax -9.79244 0.920059 0.310792
lowerneck -2.36392 12.7526 4.31702
upperneck -1.17401 16.9961 -9.93678
head 1.36991 8.45039 -3.43878
lclavicle -2.35418e-14 1.51453e-16 0
lhumerus 102.259 -35.1429 18.3995
lradius 104.346 0 0
lwrist 17.0586 0 0
lhand -9.9007 23.6969 0
lfingers 7.12502 0 0
lthumb 16.0791 53.0473 0
rclavicle -2.35418e-14 1.51453e-16 0
rhumerus 30.8082 41.613 -51.6599
rradius 67.3123 0 0
rwrist -6.97574 0 0
rhand -11.7192 -39.0168 0
rfingers 7.12502 0 0
rthumb 14.319 -68.3973 0
823
root -3.53564 14.8066 -40.3544 384.484 -71.0595 344.537
lfemur -67.3279 19.7213 -20.2249
ltibia 82.9278 0 0
lfoot -6.19668 10.4927 0
ltoes -13.9861 0 0
rfemur -33.5355 -10.3727 23.1381
rtibia 71.5557 0 0
rfoot -32.4797 -27.4563 0
rtoes -21.5334 0 0
lowerback 18.1613 1.0769 3.24918
upperback 0.330833 2.27745 2.48405
thorax -9.83204 0.959677 0.268721
lowerneck -2.45726 12.6443 4.34034
upperneck -0.936356 16.8583 -9.80002
head 1.44387 8.37692 -3.39348
lclavicle -2.20935e-14 -5.6796e-16 0
lhumerus 100.59 -35.4879 18.6124
lradius 105.425 0 0
lwrist 16.2575 0 0
lhand -10.0604 23.964 0
lfingers 7.12502 0 0
lthumb 15.9253 53.3257 0
rclavicle -2.20935e-14 -5.6796e-16 0
rhumerus 31.5887 42.9094 -50.1848
rradius 68.5748 0 0
rwrist -5.8773 0 0
rhand -10.752 -38.0896 0
rfingers 7.12502 0 0
rthumb 15.2469 -67.3561 0
824
root -3.45577 14.8168 -40.329 383.827 -70.4569 345.055
lfemur -66.0889 19.7714 -18.7166
ltibia 81.7591 0 0
lfoot -5.46002 10.7948 0
ltoes -13.3149 0 0
rfemur -33.4869 -10.7193 22.8675
rtibia 71.4649 0 0
rfoot -32.1748 -27.4514 0
rtoes -21.4355 0 0
lowerback 18.131 1.14072 3.24356
upperback 0.27757 2.36179 2.46247
thorax -9.87164 0.999295 0.226651
lowerneck -2.5506 12.536 4.36367
upperneck -0.698704 16.7205 -9.66326
head 1.51783 8.30345 -3.34817
lclavicle -2.06452e-14 -1.28737e-15 0
lhumerus 98.9198 -35.8328 18.8254
lradius 106.505 0 0
lwrist 15.4564 0 0
lhand -10.2202 24.231 0
lfingers 7.12502 0 0
lthumb 15.7714 53.604 0
rclavicle -2.06452e-14 -1.28737e-15 0
rhumerus 32.3693 44.2058 -48.7098
rradius 69.8374 0 0
rwrist -4.77885 0 0
rhand -9.78483 -37.1624 0
rfingers 7.12502 0 0
rthumb 16.1748 -66.315 0
